<?xml version="1.0" encoding="UTF-8"?>
<svg version="1.1" xmlns="http://www.w3.org/2000/svg" width="1536" height="1024">
<path d="M0 0 C506.88 0 1013.76 0 1536 0 C1536 337.92 1536 675.84 1536 1024 C1029.12 1024 522.24 1024 0 1024 C0 686.08 0 348.16 0 0 Z " fill="#FDFCFD" transform="translate(0,0)"/>
<path d="M0 0 C422.07 0 844.14 0 1279 0 C1279 132.99 1279 265.98 1279 403 C856.93 403 434.86 403 0 403 C0 270.01 0 137.02 0 0 Z " fill="#073477" transform="translate(97,311)"/>
<path d="M0 0 C5.02619245 0.67298631 6.9257984 1.35681934 10.1875 5.3125 C10.95449219 6.21742188 11.72148437 7.12234375 12.51171875 8.0546875 C13.33285156 9.02664063 14.15398437 9.99859375 15 11 C16.81370289 12.99752861 18.65897281 14.96517673 20.5 16.9375 C23.93139075 20.64907666 27.21131781 24.42908869 30.375 28.375 C34.97658316 34.09387404 39.95621081 39.41004657 44.9765625 44.7578125 C47.87937453 47.85402595 50.6888839 51.01980089 53.4375 54.25390625 C55.53357373 56.59626864 57.76471071 58.7911415 60 61 C73.67941508 53.9989786 86.98378006 46.46080029 100.21142578 38.64257812 C102.72662011 37.16103133 105.2492386 35.69374452 107.77734375 34.234375 C115.33187621 29.86238309 122.71367226 25.32930986 129.91821289 20.39746094 C133.84265836 17.71746087 137.84786336 15.31378606 142 13 C140.05418993 19.79080715 137.81856445 26.40302816 135.296875 33 C134.56271368 34.93973632 133.82866915 36.87951685 133.09472656 38.81933594 C132.52050964 40.33182922 132.52050964 40.33182922 131.93469238 41.87487793 C125.61548774 58.54442538 119.34605558 75.23630217 113.25646973 91.99121094 C112.58737211 93.82524442 111.9128363 95.65730336 111.23278809 97.48730469 C110.29168466 100.02296835 109.36997169 102.5648585 108.453125 105.109375 C108.17182739 105.85507751 107.89052979 106.60078003 107.60070801 107.36907959 C106.17858808 111.29101556 106.17858808 111.29101556 106.69946289 115.32226562 C108.72277817 117.93240691 110.91960162 120.35441833 113.1875 122.75 C114.19210302 123.82747578 115.19601053 124.90560045 116.19921875 125.984375 C116.68438965 126.50451172 117.16956055 127.02464844 117.66943359 127.56054688 C119.31661835 129.34252877 120.91414406 131.1633396 122.5 133 C125.43844065 136.39050844 128.46116302 139.69966982 131.5 143 C135.14484424 146.95933029 138.74260299 150.95127964 142.265625 155.01953125 C144.27264538 157.31133155 146.32402851 159.55996752 148.375 161.8125 C152.37153376 166.23187522 156.1443497 170.79949027 159.859375 175.45703125 C162.01831739 178.10579856 162.01831739 178.10579856 164.765625 180.69921875 C167 183 167 183 167 185 C167.66 185 168.32 185 169 185 C169 185.66 169 186.32 169 187 C168.35264893 186.91959473 167.70529785 186.83918945 167.03833008 186.75634766 C163.96341768 186.37622005 160.88796503 186.00062932 157.8125 185.625 C156.79607422 185.49867188 155.77964844 185.37234375 154.73242188 185.2421875 C144.17397679 183.95848597 133.58995448 182.98224937 123 182 C121.09658524 181.8222427 119.19318361 181.64434482 117.28979492 181.46630859 C111.58923645 180.93364223 105.88838909 180.40411423 100.1875 179.875 C98.21158649 179.69142833 96.23567502 179.50783466 94.25976562 179.32421875 C89.50653378 178.88256061 84.75327492 178.44119433 80 178 C79.75789291 178.87147675 79.75789291 178.87147675 79.51089478 179.76055908 C76.98533603 188.73370849 73.58463616 197.40517552 70.3125 206.125 C69.69957623 207.76551535 69.08694362 209.40613952 68.47460938 211.046875 C66.98642724 215.03251263 65.49431106 219.01665642 64 223 C104.49989608 225.55310918 141.50599576 221.95958143 177.42114258 201.43798828 C180.19697142 199.86257148 181.7439349 199 185 199 C166.77827111 233.64378085 137.37093853 258.69422364 100 271 C85.71954132 275.27681672 71.24543289 277.83348244 56.4453125 279.45703125 C55.54941406 279.56015625 54.65351563 279.66328125 53.73046875 279.76953125 C51 280 51 280 48.08203125 279.96484375 C42.59784149 279.95434129 42.59784149 279.95434129 38.12353516 282.77563477 C36.44596011 285.23380953 35.08437351 287.71528668 33.75 290.375 C32.74953959 292.20098224 31.74824228 294.0265062 30.74609375 295.8515625 C30.27800293 296.73618164 29.80991211 297.62080078 29.32763672 298.53222656 C27.62151969 301.70350846 25.75725927 304.71951623 23.8125 307.75 C23.28269531 308.59046875 22.75289062 309.4309375 22.20703125 310.296875 C21.80871094 310.85890625 21.41039062 311.4209375 21 312 C20.67 312 20.34 312 20 312 C18.35 300.78 16.7 289.56 15 278 C7.575 276.515 7.575 276.515 0 275 C-23.48827005 268.86236159 -43.45664485 256.58486058 -61 240 C-61.73734375 239.31550781 -62.4746875 238.63101563 -63.234375 237.92578125 C-91.34784558 210.95878198 -108.23906527 173.47533866 -109.16113281 134.484375 C-109.18094374 132.90631227 -109.19471014 131.32816464 -109.203125 129.75 C-109.20882507 128.89301514 -109.21452515 128.03603027 -109.22039795 127.15307617 C-109.2297832 125.34799406 -109.23635591 123.54289531 -109.24023438 121.73779297 C-109.2498769 119.03451 -109.28093667 116.33200954 -109.3125 113.62890625 C-109.46028123 89.4695094 -104.31688927 68.60934479 -88 50 C-87.67 50 -87.34 50 -87 50 C-86.88519287 50.57105469 -86.77038574 51.14210938 -86.65209961 51.73046875 C-79.26343691 91.60013631 -79.26343691 91.60013631 -61 127 C-31.82587961 112.08251051 -31.82587961 112.08251051 -3.47607422 95.67675781 C-0.98606084 94.1425438 1.21010765 92.92996412 4 92 C3.71730118 82.66638154 3.42529672 73.33306799 3.125 64 C3.10295753 63.31475754 3.08091507 62.62951508 3.05820465 61.92350769 C2.39063563 41.25725109 1.57719508 20.62017742 0 0 Z " fill="#F9FAFA" transform="translate(348,349)"/>
<path d="M0 0 C0.66 0 1.32 0 2 0 C2.1959375 0.8765625 2.391875 1.753125 2.59375 2.65625 C7.51879246 23.5452232 14.992844 43.17865824 24.00366211 62.63183594 C24.89660853 64.75425208 25.51898725 66.75332244 26 69 C26.54487061 68.71503662 27.08974121 68.43007324 27.65112305 68.13647461 C30.32957614 66.73616637 33.00849328 65.33674878 35.6875 63.9375 C36.70610107 63.40527832 37.72470215 62.87305664 38.77416992 62.32470703 C44.62478672 59.27125566 50.48229557 56.23224714 56.3515625 53.21484375 C58.83878349 51.93536526 61.32577081 50.65543408 63.8125 49.375 C64.42705048 49.05859558 65.04160095 48.74219116 65.67477417 48.41619873 C74.19688951 44.02337316 82.64878035 39.52551633 90.98754883 34.79248047 C95.9120201 32 95.9120201 32 97 32 C100.20969427 72.51129407 100.20969427 72.51129407 100 86 C89.08224989 85.35322532 78.33578724 83.35305141 67.5625 81.5625 C65.64263678 81.24638837 63.72271525 80.93063064 61.80273438 80.61523438 C56.53429364 79.7486596 51.26691004 78.87582564 46 78 C45.30541687 77.8845282 44.61083374 77.7690564 43.89520264 77.65008545 C40.59656823 77.10145187 37.29813465 76.55162995 34 76 C45.91692882 89.15966255 57.97810474 102.05139685 72 113 C73.14002036 113.92723452 74.2779176 114.85708341 75.4140625 115.7890625 C76.01839111 116.28059814 76.62271973 116.77213379 77.24536133 117.27856445 C78.50414613 118.30583357 79.75657694 119.34093553 81.00268555 120.38354492 C84.414936 123.17546497 87.72507533 125.46274144 91.66796875 127.44921875 C97.37139588 130.46420969 102.76099441 133.31851498 104.91943359 139.73193359 C106.19117312 146.74144309 106.13200319 153.77998129 106.03027344 160.88232422 C105.97321643 165.31442161 106.12016792 169.73166495 106.2890625 174.16015625 C106.34641484 175.68855567 106.40370699 177.21695734 106.4609375 178.74536133 C106.48897461 179.4916983 106.51701172 180.23803528 106.54589844 181.00698853 C106.7456037 186.66985016 106.86838549 192.33522604 107 198 C99.95703125 196.80627648 93.46593851 194.96137369 86.8125 192.375 C85.90121338 192.02236084 84.98992676 191.66972168 84.05102539 191.30639648 C71.10996546 186.18434385 59.84869829 179.80743006 49 171 C48.46632813 170.57315918 47.93265625 170.14631836 47.3828125 169.70654297 C23.6444935 150.65598474 4.82661815 123.63164073 -3 94 C-3.26949463 93.00806641 -3.26949463 93.00806641 -3.54443359 91.99609375 C-11.41857375 62.665093 -13.83736853 27.90157917 0 0 Z " fill="#083376" transform="translate(256,416)"/>
<path d="M0 0 C422.07 0 844.14 0 1279 0 C1279 132.99 1279 265.98 1279 403 C856.93 403 434.86 403 0 403 C0 270.01 0 137.02 0 0 Z M2 2 C2 133.67 2 265.34 2 401 C423.08 401 844.16 401 1278 401 C1278 269.33 1278 137.66 1278 2 C856.92 2 435.84 2 2 2 Z " fill="#0C2A6E" transform="translate(97,311)"/>
<path d="M0 0 C5.28 0 10.56 0 16 0 C16 38.94 16 77.88 16 118 C10.72 118 5.44 118 0 118 C0 98.53 0 79.06 0 59 C-2.97 59 -5.94 59 -9 59 C-9.01417969 59.64324219 -9.02835938 60.28648437 -9.04296875 60.94921875 C-9.56760606 70.8889689 -12.25458309 81.27479841 -19.32421875 88.63671875 C-25.43736453 93.60988397 -32.20190967 95.51987269 -40 95 C-46.03584133 93.59797386 -51.01565626 90.76814907 -55 86 C-61.80024055 74.88512407 -63.36135279 65.12040722 -63.375 52.3125 C-63.39949219 51.12205078 -63.42398438 49.93160156 -63.44921875 48.70507812 C-63.48925001 36.43549762 -60.88585942 24.05380721 -52.078125 15.03125 C-45.95169908 9.41152096 -41.11808819 7.48668743 -32.7734375 7.69921875 C-25.21511792 8.51892383 -20.53838875 12.74820689 -15.76171875 18.42578125 C-10.5400808 26.05562474 -8.82169074 34.90622787 -9 44 C-6.03 44 -3.06 44 0 44 C0 29.48 0 14.96 0 0 Z " fill="#FCFDFD" transform="translate(863,457)"/>
<path d="M0 0 C6.04010695 4.78397851 10.69366932 10.71722518 15.50390625 16.6953125 C18.12279606 19.82531552 20.93314961 22.6569584 23.859375 25.49609375 C26.416836 28.04831405 28.7480745 30.7668861 31.0859375 33.51953125 C32.71869852 35.34594532 34.44718288 36.94766361 36.265625 38.5859375 C37.090625 39.5140625 37.915625 40.4421875 38.765625 41.3984375 C38.41500715 45.35408278 36.9124188 48.94042135 35.5078125 52.6328125 C35.05003418 53.83969727 34.59225586 55.04658203 34.12060547 56.29003906 C33.62757809 57.57628669 33.13424597 58.86241755 32.640625 60.1484375 C32.14074729 61.45799237 31.64091019 62.76756273 31.14111328 64.07714844 C28.37872168 71.29606382 25.57527501 78.49751954 22.640625 85.6484375 C22.35815918 86.33776367 22.07569336 87.02708984 21.78466797 87.73730469 C19.89712197 92.26694053 19.89712197 92.26694053 18.765625 93.3984375 C9.70136794 93.30507372 0.70073358 91.2114022 -8.171875 89.5234375 C-20.48855792 87.18950422 -32.82737251 85.19413507 -45.234375 83.3984375 C-45.66489918 76.13951366 -46.09175676 68.88038074 -46.51611328 61.62109375 C-46.66078422 59.15359662 -46.80628231 56.68614785 -46.95263672 54.21875 C-47.16333053 50.66418771 -47.37101073 47.10945994 -47.578125 43.5546875 C-47.64374634 42.45854126 -47.70936768 41.36239502 -47.77697754 40.23303223 C-48.10158882 34.60970246 -48.30567427 29.03107963 -48.234375 23.3984375 C-47.44490479 22.99117432 -46.65543457 22.58391113 -45.84204102 22.16430664 C-43.48871713 20.94987022 -41.13569059 19.73486953 -38.78295898 18.51928711 C-36.12094736 17.14398781 -33.45752334 15.7714747 -30.79321289 14.40063477 C-25.04709275 11.43958694 -19.31183437 8.47428492 -13.6640625 5.328125 C-12.88732178 4.89878662 -12.11058105 4.46944824 -11.31030273 4.02709961 C-9.91940621 3.25233261 -8.53557643 2.46469254 -7.16040039 1.66235352 C-2.80101253 -0.75411876 -2.80101253 -0.75411876 0 0 Z " fill="#F1DE3C" transform="translate(407.234375,419.6015625)"/>
<path d="M0 0 C0.81339844 0.1858667 1.62679688 0.3717334 2.46484375 0.56323242 C19.94228473 4.55045795 37.43185985 8.4282209 55 12 C45.32034529 46.50836252 31.37283061 79.97109022 16.20166016 112.40234375 C13.35690023 118.55192636 10.68107382 124.77771263 8 131 C7.67 131 7.34 131 7 131 C5.05393843 105.09809992 3.43024933 79.17934418 1.94868469 53.24727249 C1.81344132 50.89139732 1.67633439 48.5356375 1.53869629 46.17990112 C-0.34815089 13.8113193 -0.34815089 13.8113193 0 0 Z " fill="#F1DE3B" transform="translate(364,515)"/>
<path d="M0 0 C26.73 0 53.46 0 81 0 C81 11.88 81 23.76 81 36 C59.88 36 38.76 36 17 36 C17 38.31 17 40.62 17 43 C38.78 43 60.56 43 83 43 C83 47.62 83 52.24 83 57 C56.27 57 29.54 57 2 57 C1.45489789 45.00775355 1 33.00462874 1 21 C22.12 21 43.24 21 65 21 C65 18.69 65 16.38 65 14 C43.55 14 22.1 14 0 14 C0 9.38 0 4.76 0 0 Z " fill="#F9FAFC" transform="translate(1051,520)"/>
<path d="M0 0 C0.38219927 13.77332916 -0.17808937 27.34776968 -1.375 41.0625 C-1.43821442 41.79908844 -1.50142883 42.53567688 -1.56655884 43.29458618 C-2.40295627 52.92179791 -3.55472239 62.44231634 -5 72 C-10.61 72 -16.22 72 -22 72 C-21.01 64.08 -20.02 56.16 -19 48 C-42.68422774 47.84508863 -66.32587039 48.32394122 -90 49 C-90 43.72 -90 38.44 -90 33 C-65.65884835 32.27417226 -41.35216539 31.84555657 -17 32 C-17.01160156 31.35933594 -17.02320313 30.71867187 -17.03515625 30.05859375 C-17.04417969 29.19363281 -17.05320312 28.32867187 -17.0625 27.4375 C-17.07410156 26.59058594 -17.08570313 25.74367188 -17.09765625 24.87109375 C-16.98511435 21.56236204 -16.46819593 18.27737148 -16 15 C-39.1 15 -62.2 15 -86 15 C-86 10.38 -86 5.76 -86 1 C-57.32989846 0.34508152 -28.67823775 -0.1812255 0 0 Z " fill="#FBFCFD" transform="translate(1015,464)"/>
<path d="M0 0 C27.39 0 54.78 0 83 0 C83 4.62 83 9.24 83 14 C61.22 14 39.44 14 17 14 C17 24.89 17 35.78 17 47 C39.11 47 61.22 47 84 47 C84 51.95 84 56.9 84 62 C56.28 62 28.56 62 0 62 C0 41.54 0 21.08 0 0 Z " fill="#F8F9FB" transform="translate(1162,465)"/>
<path d="M0 0 C5.61 0 11.22 0 17 0 C17 4.29 17 8.58 17 13 C25.25 13 33.5 13 42 13 C42 8.71 42 4.42 42 0 C47.61 0 53.22 0 59 0 C59 17.49 59 34.98 59 53 C39.53 53 20.06 53 0 53 C0 35.51 0 18.02 0 0 Z " fill="#FAFBFC" transform="translate(1038,460)"/>
<path d="M0 0 C0 7.3744942 -8.34058338 14.57908974 -13.1875 19.625 C-18.95788066 25.20488666 -25.18436449 29.80681735 -32 34 C-33.0828125 34.66644531 -34.165625 35.33289063 -35.28125 36.01953125 C-61.93915969 51.23975672 -91.65739118 57.24975244 -122 57 C-120.47168394 52.53370041 -118.94168617 48.06798176 -117.41015625 43.6027832 C-116.88984143 42.08503651 -116.36997908 40.56713462 -115.85058594 39.04907227 C-115.10211404 36.86172768 -114.35199386 34.67495424 -113.6015625 32.48828125 C-113.256129 31.47704948 -113.256129 31.47704948 -112.90371704 30.44538879 C-111.69299222 26.92294025 -110.41927362 23.4439109 -109 20 C-107.77337646 20.10284302 -107.77337646 20.10284302 -106.52197266 20.20776367 C-84.75057797 21.91242145 -62.1752633 23.00986367 -41 17 C-40.31421875 16.81808105 -39.6284375 16.63616211 -38.921875 16.44873047 C-25.28518609 12.80859333 -12.14917901 7.16817526 0 0 Z " fill="#073275" transform="translate(517,559)"/>
<path d="M0 0 C25.74 0 51.48 0 78 0 C79 4 79 4 79 14 C69.43 14 59.86 14 50 14 C54.55769797 26.04127338 54.55769797 26.04127338 64 32 C71.11265953 34.87121329 78.40951385 37.72993834 86 39 C84.44298069 43.67105792 81.91552627 47.08705685 79 51 C67.82005845 50.4315284 56.53933374 46.39046755 48 39 C42 32.34024896 42 32.34024896 42 29 C41.34 29 40.68 29 40 29 C39.7215625 29.99 39.7215625 29.99 39.4375 31 C35.16157209 39.92367564 27.45964775 45.57526419 18.3359375 49 C11.64694423 51.00477032 4.95369064 51.64806801 -2 52 C-2.50512244 50.39743892 -3.00391627 48.79288208 -3.5 47.1875 C-3.7784375 46.29417969 -4.056875 45.40085937 -4.34375 44.48046875 C-5 42 -5 42 -5 39 C-4.20078125 38.85304688 -3.4015625 38.70609375 -2.578125 38.5546875 C9.03221978 36.18356075 18.46932205 32.62232694 26.37890625 23.5390625 C28.59001278 20.26987296 28.59001278 20.26987296 31 13 C20.77 13 10.54 13 0 13 C0 8.71 0 4.42 0 0 Z " fill="#FAFBFC" transform="translate(666,462)"/>
<path d="M0 0 C34.32 0 68.64 0 104 0 C104 4.62 104 9.24 104 14 C89.48 14 74.96 14 60 14 C60 27.53 60 41.06 60 55 C54.72 55 49.44 55 44 55 C44 41.47 44 27.94 44 14 C29.48 14 14.96 14 0 14 C0 9.38 0 4.76 0 0 Z " fill="#FAFBFC" transform="translate(654,523)"/>
<path d="M0 0 C0 9.24 0 18.48 0 28 C17.49 28 34.98 28 53 28 C53 32.62 53 37.24 53 42 C17.69 42 -17.62 42 -54 42 C-54 37.38 -54 32.76 -54 28 C-41.79 28 -29.58 28 -17 28 C-17 19.09 -17 10.18 -17 1 C-7 0 -7 0 0 0 Z " fill="#FDFDFD" transform="translate(972,522)"/>
<path d="M0 0 C5.28 0 10.56 0 16 0 C16 40.26 16 80.52 16 122 C10.72 122 5.44 122 0 122 C0 81.74 0 41.48 0 0 Z " fill="#FEFEFE" transform="translate(886,456)"/>
<path d="M0 0 C1.34194178 4.02582533 -0.04947546 6.46082978 -1.54296875 10.2265625 C-1.96273987 11.31897499 -1.96273987 11.31897499 -2.39099121 12.43345642 C-3.31493526 14.83390395 -4.25126243 17.22932369 -5.1875 19.625 C-6.48363436 22.97875439 -7.77327184 26.33499192 -9.0625 29.69140625 C-9.39142746 30.5453447 -9.72035492 31.39928314 -10.05924988 32.27909851 C-12.27382662 38.04666605 -14.41514303 43.83669209 -16.5 49.65234375 C-16.77233963 50.41095703 -17.04467926 51.16957031 -17.32527161 51.95117188 C-18.3701608 54.86702038 -19.41279624 57.78356419 -20.44296265 60.70465088 C-21.1476914 62.70231318 -21.86037374 64.69698725 -22.57421875 66.69140625 C-22.97213623 67.81748291 -23.37005371 68.94355957 -23.7800293 70.10375977 C-24.91393714 72.79568466 -26.13082496 74.77411474 -28 77 C-28.40089844 76.53851563 -28.80179687 76.07703125 -29.21484375 75.6015625 C-32.56287048 71.76006244 -35.94450729 67.95561589 -39.375 64.1875 C-44.10754303 58.94159637 -48.56065546 53.49416316 -53 48 C-54.68465026 45.93515378 -56.37369374 43.87395366 -58.0625 41.8125 C-59.375 40.20833333 -60.6875 38.60416667 -62 37 C-59.36977628 34.96058885 -56.72885226 33.19651717 -53.82421875 31.57421875 C-52.59940796 30.88440918 -52.59940796 30.88440918 -51.34985352 30.18066406 C-50.03198853 29.44154785 -50.03198853 29.44154785 -48.6875 28.6875 C-39.72958493 23.62163375 -30.92109565 18.34301672 -22.14892578 12.96313477 C-14.84640784 8.4922439 -7.47702394 4.17261994 0 0 Z " fill="#083175" transform="translate(475,379)"/>
<path d="M0 0 C1.60101562 0.08701172 1.60101562 0.08701172 3.234375 0.17578125 C4.31203125 0.22089844 5.3896875 0.26601563 6.5 0.3125 C7.31984375 0.37050781 8.1396875 0.42851562 8.984375 0.48828125 C7.49718038 4.43703938 5.64654806 8.07473518 3.671875 11.80078125 C-9.84558143 38.37407086 -11.74115982 70.14787122 -3.01269531 98.51538086 C-0.46333133 106.31426851 2.76580349 113.5513145 6.6640625 120.765625 C7.984375 123.48828125 7.984375 123.48828125 7.984375 126.48828125 C-2.22071476 127.05802354 -2.22071476 127.05802354 -6.1953125 123.58203125 C-8.05661669 120.96793291 -9.56662579 118.35112875 -11.015625 115.48828125 C-11.46292969 114.63621094 -11.91023437 113.78414062 -12.37109375 112.90625 C-25.09140916 86.80024884 -27.4561693 54.81670397 -18.01367188 27.22973633 C-15.20218947 19.51008833 -11.60111882 12.32464533 -7.015625 5.48828125 C-6.41492188 4.56015625 -5.81421875 3.63203125 -5.1953125 2.67578125 C-3.015625 0.48828125 -3.015625 0.48828125 0 0 Z " fill="#F9FBFC" transform="translate(643.015625,455.51171875)"/>
<path d="M0 0 C9.1597957 -1.02680984 9.1597957 -1.02680984 12.78515625 0.99609375 C30.57555501 20.07493365 31.82080775 49.39590899 31.14794922 73.74267578 C30.38387998 90.56480742 24.90756834 106.72792973 16 121 C15.58492187 121.7528125 15.16984375 122.505625 14.7421875 123.28125 C13 125 13 125 9.86328125 125.390625 C8.69152344 125.34421875 7.51976562 125.2978125 6.3125 125.25 C5.13300781 125.21390625 3.95351563 125.1778125 2.73828125 125.140625 C1.83464844 125.09421875 0.93101562 125.0478125 0 125 C0.59167969 123.82566406 1.18335938 122.65132812 1.79296875 121.44140625 C5.7388818 113.46109554 9.45667655 105.56895163 11.9375 97 C12.12401123 96.35619385 12.31052246 95.7123877 12.50268555 95.04907227 C20.48769147 65.76576298 17.28377337 33.28045819 2.625 6.625 C2.12226562 5.77164062 1.61953125 4.91828125 1.1015625 4.0390625 C0 2 0 2 0 0 Z " fill="#FAFBFC" transform="translate(760,456)"/>
<path d="M0 0 C6.12580064 4.90064051 11.28245813 10.5447103 16.51757812 16.36035156 C18.96957744 19.07241142 21.45424119 21.75408948 23.9375 24.4375 C24.94407207 25.52728681 25.95058218 26.61713085 26.95703125 27.70703125 C28.9954797 29.91332878 31.03470729 32.11890388 33.07421875 34.32421875 C35.56612036 37.01937886 38.05540135 39.71693145 40.54199219 42.41699219 C41.52646209 43.48586406 42.51150229 44.5542109 43.49707031 45.62207031 C44.91733391 47.16232978 46.33415785 48.70567668 47.75 50.25 C48.56984375 51.14203125 49.3896875 52.0340625 50.234375 52.953125 C52 55 52 55 52 56 C47.38386507 56.08558135 43.068117 55.82709481 38.51391602 55.08203125 C37.27315811 54.88182373 36.03240021 54.68161621 34.75404358 54.4753418 C33.42064473 54.25451371 32.08726607 54.03356364 30.75390625 53.8125 C29.37393404 53.58781517 27.99388197 53.36362036 26.61375427 53.13989258 C23.0011935 52.55293378 19.38974874 51.95937087 15.77850342 51.36437988 C12.08541415 50.75712115 8.39129788 50.15617831 4.69726562 49.5546875 C-2.53617036 48.37593631 -9.76843792 47.19019948 -17 46 C-15.20341256 39.78112826 -13.2370296 33.69172664 -10.8984375 27.65625 C-10.61650543 26.92047729 -10.33457336 26.18470459 -10.0440979 25.42663574 C-9.4558939 23.89347467 -8.86598989 22.36096476 -8.27441406 20.82910156 C-7.36674341 18.47861893 -6.46418877 16.12622063 -5.5625 13.7734375 C-4.98726926 12.2759302 -4.41175879 10.77853032 -3.8359375 9.28125 C-3.56615082 8.57923462 -3.29636414 7.87721924 -3.0184021 7.15393066 C-1.11794246 2.23588493 -1.11794246 2.23588493 0 0 Z " fill="#083275" transform="translate(450,470)"/>
<path d="M0 0 C3.61838265 1.80919132 4.68039227 2.50708102 7.0625 5.4375 C10.48317549 9.49081655 14.16767094 13.20003699 17.94262695 16.92260742 C21.25899609 20.21268792 24.35938628 23.62099536 27.390625 27.171875 C29.02586434 29.02937988 30.73481793 30.76606009 32.5 32.5 C37.7402763 37.65784499 42.43067341 43.24603319 47 49 C46.50411377 49.29543701 46.00822754 49.59087402 45.49731445 49.89526367 C43.10129816 51.3242115 40.70669365 52.75550032 38.3125 54.1875 C37.42578613 54.71762695 36.53907227 55.24775391 35.62548828 55.79394531 C30.74706229 58.72014579 25.89142933 61.6778579 21.06640625 64.69140625 C20.11403076 65.28606689 19.16165527 65.88072754 18.18041992 66.4934082 C16.32785521 67.65337714 14.47770135 68.8172064 12.63012695 69.98510742 C11.79054443 70.51080322 10.95096191 71.03649902 10.0859375 71.578125 C9.3439209 72.04637695 8.6019043 72.51462891 7.83740234 72.99707031 C6 74 6 74 4 74 C2.68 49.58 1.36 25.16 0 0 Z " fill="#F1DE3B" transform="translate(354,363)"/>
<path d="M0 0 C35.97 0 71.94 0 109 0 C109 4.62 109 9.24 109 14 C73.03 14 37.06 14 0 14 C0 9.38 0 4.76 0 0 Z " fill="#FDFDFD" transform="translate(1149,550)"/>
<path d="M0 0 C5.23760174 4.76145613 6.71368371 9.93212196 7.20458984 16.90673828 C7.30469251 20.21114268 7.32198321 23.50665149 7.3125 26.8125 C7.32861328 27.92431641 7.34472656 29.03613281 7.36132812 30.18164062 C7.36630351 38.68457573 6.80706788 47.13079832 1.6875 54.1875 C-1 56 -1 56 -4 56.625 C-8.27366172 55.73465381 -9.45246499 54.58031947 -12 51 C-17.44928879 37.96530122 -16.78888769 19.18731014 -12 6 C-8.47661358 0.99235237 -6.26727351 -0.86021401 0 0 Z " fill="#093275" transform="translate(831,480)"/>
<path d="M0 0 C5.61 0 11.22 0 17 0 C17 19.14 17 38.28 17 58 C11.72 58 6.44 58 1 58 C0.505 29.29 0.505 29.29 0 0 Z " fill="#FDFEFE" transform="translate(1115,455)"/>
<path d="M0 0 C1.03511719 0.21914063 2.07023437 0.43828125 3.13671875 0.6640625 C18.08167749 3.82180682 33.04053639 6.9118741 48 10 C49.49954994 20.33669527 50.47914864 30.56926611 51 41 C47.55869664 39.73841399 44.76088244 38.30043417 41.8125 36.12890625 C41.03753174 35.55986572 40.26256348 34.9908252 39.46411133 34.40454102 C38.24437622 33.49273071 38.24437622 33.49273071 37 32.5625 C36.15783936 31.93722412 35.31567871 31.31194824 34.44799805 30.66772461 C27.38659965 25.38059427 20.62482833 19.82038489 14 14 C13.22140625 13.32066406 12.4428125 12.64132812 11.640625 11.94140625 C10.33119864 10.79688885 9.02477163 9.64892202 7.72265625 8.49609375 C6.01554384 7.01349953 4.26498448 5.6003066 2.5 4.1875 C1.675 3.465625 0.85 2.74375 0 2 C0 1.34 0 0.68 0 0 Z " fill="#073074" transform="translate(309,503)"/>
<path d="M0 0 C8.25 0 16.5 0 25 0 C25 3.96 25 7.92 25 12 C16.75 12 8.5 12 0 12 C0 8.04 0 4.08 0 0 Z " fill="#092D71" transform="translate(1055,487)"/>
<path d="M0 0 C0.99 0.495 0.99 0.495 2 1 C2 4.3 2 7.6 2 11 C9.26 11 16.52 11 24 11 C24 7.37 24 3.74 24 0 C24.33 0 24.66 0 25 0 C25 4.29 25 8.58 25 13 C16.75 13 8.5 13 0 13 C0 8.71 0 4.42 0 0 Z " fill="#001A65" transform="translate(1055,460)"/>
<path d="M0 0 C20.79 0.33 41.58 0.66 63 1 C63 1.33 63 1.66 63 2 C43.2 2 23.4 2 3 2 C2.67 3.65 2.34 5.3 2 7 C1.34 7 0.68 7 0 7 C0 4.69 0 2.38 0 0 Z " fill="#143C7B" transform="translate(1068,556)"/>
<path d="M0 0 C1.58206057 0.00667536 3.16410534 0.0186375 4.74609375 0.03515625 C5.55240234 0.03966797 6.35871094 0.04417969 7.18945312 0.04882812 C9.18753131 0.06065107 11.18557158 0.07858711 13.18359375 0.09765625 C13.18359375 0.75765625 13.18359375 1.41765625 13.18359375 2.09765625 C7.90359375 2.09765625 2.62359375 2.09765625 -2.81640625 2.09765625 C-3.14640625 8.03765625 -3.47640625 13.97765625 -3.81640625 20.09765625 C-4.14640625 20.09765625 -4.47640625 20.09765625 -4.81640625 20.09765625 C-4.84529139 16.95184202 -4.86316548 13.80606156 -4.87890625 10.66015625 C-4.88728516 9.76232422 -4.89566406 8.86449219 -4.90429688 7.93945312 C-4.90751953 7.08544922 -4.91074219 6.23144531 -4.9140625 5.3515625 C-4.92191772 4.16542358 -4.92191772 4.16542358 -4.92993164 2.95532227 C-4.71407322 -0.57686424 -3.68160549 0.0942069 0 0 Z " fill="#183376" transform="translate(865.81640625,454.90234375)"/>
<path d="M0 0 C4.455 0.99 4.455 0.99 9 2 C8.67 3.32 8.34 4.64 8 6 C11.63 9.3 15.26 12.6 19 16 C14.73980871 16 12.96587207 13.49185329 10.0625 10.6875 C6.00318474 6.79070852 6.00318474 6.79070852 1.62109375 3.26953125 C1.08613281 2.85058594 0.55117188 2.43164062 0 2 C0 1.34 0 0.68 0 0 Z " fill="#0C2065" transform="translate(309,503)"/>
<path d="M0 0 C0.82242188 0.00451172 1.64484375 0.00902344 2.4921875 0.01367188 C4.49482396 0.02531511 6.49742227 0.04324444 8.5 0.0625 C8.5 0.3925 8.5 0.7225 8.5 1.0625 C6.52 1.3925 4.54 1.7225 2.5 2.0625 C2.5 2.3925 2.5 2.7225 2.5 3.0625 C-0.27109307 3.11642397 -3.04113818 3.15613455 -5.8125 3.1875 C-6.59818359 3.20425781 -7.38386719 3.22101563 -8.19335938 3.23828125 C-8.95068359 3.24472656 -9.70800781 3.25117188 -10.48828125 3.2578125 C-11.53302612 3.27352295 -11.53302612 3.27352295 -12.59887695 3.28955078 C-14.5 3.0625 -14.5 3.0625 -17.5 1.0625 C-11.61599345 0.20554033 -5.94090708 -0.06289234 0 0 Z " fill="#123C7C" transform="translate(961.5,493.9375)"/>
<path d="M0 0 C5.61 0 11.22 0 17 0 C17 0.33 17 0.66 17 1 C19.97 1.495 19.97 1.495 23 2 C23 2.33 23 2.66 23 3 C15.41 3 7.82 3 0 3 C0 2.01 0 1.02 0 0 Z " fill="#2A538C" transform="translate(430,581)"/>
<path d="M0 0 C0.33 0 0.66 0 1 0 C1.33 5.61 1.66 11.22 2 17 C3.98 16.34 5.96 15.68 8 15 C5.40503742 18.00469351 4.0785301 18.36858796 0 20 C0 13.4 0 6.8 0 0 Z " fill="#F2D824" transform="translate(358,417)"/>
<path d="M0 0 C4.13937592 3.30015998 7.58662205 6.17324411 10 11 C9.34 11 8.68 11 8 11 C6.4921875 9.46875 6.4921875 9.46875 4.875 7.5 C4.33617187 6.8503125 3.79734375 6.200625 3.2421875 5.53125 C2.62730469 4.77328125 2.62730469 4.77328125 2 4 C0.68 5.32 -0.64 6.64 -2 8 C-1.125 2.25 -1.125 2.25 0 0 Z " fill="#0F2166" transform="translate(450,470)"/>
<path d="M0 0 C0.66 0 1.32 0 2 0 C1.50341703 5.66104589 0.45489316 9.87674471 -2 15 C-3.04370776 11.78067606 -2.92371112 9.64643321 -2.125 6.375 C-1.94195312 5.59898437 -1.75890625 4.82296875 -1.5703125 4.0234375 C-1 2 -1 2 0 0 Z " fill="#1A3C7B" transform="translate(256,416)"/>
<path d="M0 0 C0.33 0.66 0.66 1.32 1 2 C1.66 2 2.32 2 3 2 C4 7.75 4 7.75 4 10 C4.66 10.33 5.32 10.66 6 11 C5.67 12.65 5.34 14.3 5 16 C3.13389074 13.20083611 2.31214617 11.18061731 1.375 8 C1.11460937 7.13375 0.85421875 6.2675 0.5859375 5.375 C0 3 0 3 0 0 Z " fill="#051C64" transform="translate(785,478)"/>
<path d="M0 0 C0 3.39593478 -0.52165948 4.06619881 -2.5 6.6875 C-2.9640625 7.31011719 -3.428125 7.93273437 -3.90625 8.57421875 C-4.2671875 9.04472656 -4.628125 9.51523437 -5 10 C-5 7 -5 7 -4 5 C-5.32 5.33 -6.64 5.66 -8 6 C-5.63379989 3.38472619 -3.057952 1.73559438 0 0 Z " fill="#0C1F62" transform="translate(517,559)"/>
<path d="M0 0 C3.3 0.33 6.6 0.66 10 1 C10 1.33 10 1.66 10 2 C8.88625 2.103125 7.7725 2.20625 6.625 2.3125 C5.42875 2.539375 4.2325 2.76625 3 3 C2.01 4.485 2.01 4.485 1 6 C0.34 6 -0.32 6 -1 6 C-0.67 4.02 -0.34 2.04 0 0 Z " fill="#041B62" transform="translate(408,579)"/>
<path d="M0 0 C0.33 0.66 0.66 1.32 1 2 C3.58605332 2.4683265 3.58605332 2.4683265 6.5625 2.625 C8.08037109 2.73714844 8.08037109 2.73714844 9.62890625 2.8515625 C10.80259766 2.92503906 10.80259766 2.92503906 12 3 C12 3.33 12 3.66 12 4 C7.71 4 3.42 4 -1 4 C-0.67 2.68 -0.34 1.36 0 0 Z " fill="#071660" transform="translate(413,568)"/>
<path d="M0 0 C1.485 0.99 1.485 0.99 3 2 C3.1875 5.125 3.1875 5.125 3 8 C2.34 8 1.68 8 1 8 C0.67 8.66 0.34 9.32 0 10 C0 6.7 0 3.4 0 0 Z " fill="#1A4382" transform="translate(356,526)"/>
<path d="M0 0 C0.66 0.99 1.32 1.98 2 3 C1.34 3.66 0.68 4.32 0 5 C-0.16681109 8.08347826 -0.16681109 8.08347826 0 11 C-0.99 10.34 -1.98 9.68 -3 9 C-2.01 6.03 -1.02 3.06 0 0 Z " fill="#051A63" transform="translate(456,455)"/>
<path d="M0 0 C1 3 1 3 0.0625 5.1875 C-0.4634375 6.0846875 -0.4634375 6.0846875 -1 7 C-1.66 6.01 -2.32 5.02 -3 4 C-3.66 3.67 -4.32 3.34 -5 3 C-3.35 2.01 -1.7 1.02 0 0 Z " fill="#09195E" transform="translate(475,379)"/>
</svg>
